<?xml version="1.0" encoding="UTF-8"?>
<svg version="1.1" xmlns="http://www.w3.org/2000/svg" width="1024" height="1024">

<path d="M0 0 C15.22992586 11.95345813 25.79329155 26.92870363 29.1875 46.25 C30.1218265 58.73389075 29.77166724 70.50504737 25.1875 82.25 C24.87554688 83.07371094 24.56359375 83.89742187 24.2421875 84.74609375 C23.32110722 86.97913292 22.29736342 89.1050512 21.1875 91.25 C20.80335938 92.02472656 20.41921875 92.79945313 20.0234375 93.59765625 C13.7618506 105.15046716 3.65286341 114.05205717 -7.8125 120.25 C-8.66070313 120.72050781 -9.50890625 121.19101562 -10.3828125 121.67578125 C-25.00573705 129.07454457 -44.95178648 131.02372075 -60.7109375 126.421875 C-70.92722808 122.56181559 -80.68457044 117.62715695 -88.8125 110.25 C-89.49570312 109.64671875 -90.17890625 109.0434375 -90.8828125 108.421875 C-102.3389062 97.70628926 -111.52948915 80.0124157 -112.11328125 64.17578125 C-112.35457345 41.49833564 -106.60504665 23.36982741 -90.5078125 6.890625 C-66.08519171 -16.36158266 -27.822974 -19.39770722 0 0 Z " fill="#29B7B1" transform="translate(611.8125,453.75)"/>
<path d="M0 0 C2.55860387 1.41482121 4.58668339 2.96501943 6.5 5.1875 C6.5 5.8475 6.5 6.5075 6.5 7.1875 C7.16 7.1875 7.82 7.1875 8.5 7.1875 C8.7784375 6.32125 8.7784375 6.32125 9.0625 5.4375 C11.42636389 1.73753912 15.28589921 -0.13844915 19.4375 -1.40234375 C26.7491961 -2.85637422 32.75348435 -2.05261713 39.296875 1.55859375 C43.94971256 4.99872365 46.30155199 9.61944128 47.5 15.1875 C47.58348775 17.95175233 47.61625686 20.68963712 47.59765625 23.453125 C47.5962413 24.24652283 47.59482635 25.03992065 47.59336853 25.85736084 C47.58778415 28.38411272 47.57523454 30.91077504 47.5625 33.4375 C47.55748298 35.15364455 47.55292043 36.86979049 47.54882812 38.5859375 C47.53781984 42.78649269 47.52056596 46.98698117 47.5 51.1875 C43.21 51.1875 38.92 51.1875 34.5 51.1875 C34.48541748 50.18372314 34.47083496 49.17994629 34.45581055 48.14575195 C34.39767948 44.4087425 34.32044835 40.67232631 34.23754883 36.93579102 C34.2043689 35.32098037 34.17631542 33.70605569 34.15356445 32.09106445 C34.11988975 29.76464408 34.06757037 27.43926217 34.01171875 25.11328125 C34.00532883 24.39537918 33.9989389 23.67747711 33.99235535 22.93782043 C33.86425028 18.53483203 33.1658942 15.71410544 30.5 12.1875 C27.07823311 9.62117483 23.65359579 9.82314949 19.5 10.1875 C15.79542915 11.87139584 13.54917399 13.68243804 11.5 17.1875 C11.17571651 19.86892712 11.01199745 22.33197534 10.98828125 25.015625 C10.97033005 25.76463074 10.95237885 26.51363647 10.93388367 27.28533936 C10.87985457 29.66933624 10.84590997 32.0531338 10.8125 34.4375 C10.77932025 36.05731936 10.74482997 37.67711244 10.70898438 39.296875 C10.62413284 43.26027266 10.55728711 47.22361197 10.5 51.1875 C6.54 51.1875 2.58 51.1875 -1.5 51.1875 C-1.51458252 50.21925293 -1.52916504 49.25100586 -1.54418945 48.25341797 C-1.60241567 44.64123676 -1.67964536 41.02966317 -1.76245117 37.41796875 C-1.79558667 35.85849919 -1.8236537 34.29891298 -1.84643555 32.73925781 C-1.88019281 30.48973148 -1.93251504 28.24126313 -1.98828125 25.9921875 C-1.99467117 25.3013205 -2.0010611 24.61045349 -2.00764465 23.89865112 C-2.14545478 19.30201208 -3.12182432 16.11434959 -5.5 12.1875 C-8.47364931 9.76452649 -11.77440457 9.82854482 -15.53515625 9.93359375 C-18.45627792 10.31107468 -20.24314524 11.32891372 -22.5 13.1875 C-25.00001665 16.84654511 -24.84573193 20.7383818 -24.9140625 25.015625 C-24.93342865 25.76463074 -24.9527948 26.51363647 -24.9727478 27.28533936 C-25.03235716 29.66927836 -25.07885354 32.05326614 -25.125 34.4375 C-25.16319701 36.05731231 -25.20224975 37.67710468 -25.2421875 39.296875 C-25.33804313 43.26025406 -25.42214246 47.22372819 -25.5 51.1875 C-29.79 51.1875 -34.08 51.1875 -38.5 51.1875 C-38.5 34.0275 -38.5 16.8675 -38.5 -0.8125 C-34.54 -0.8125 -30.58 -0.8125 -26.5 -0.8125 C-26.17 0.8375 -25.84 2.4875 -25.5 4.1875 C-24.778125 3.56875 -24.05625 2.95 -23.3125 2.3125 C-16.47382348 -2.85450004 -7.79105804 -3.75871746 0 0 Z " fill="#060606" transform="translate(443.5,490.8125)"/>
<path d="M0 0 C5.12224135 3.75377613 9.31926757 8.81410905 11 15 C12.2094418 25.54832742 10.71991614 33.43342827 4.25 41.8125 C-1.4231816 48.00273106 -8.55086194 49.9202204 -16.6875 50.3125 C-23.80568132 50.22763346 -29.3957313 47.67066294 -35.3125 43.875 C-41.39333783 37.36991767 -44.34801419 29.50534225 -44.20703125 20.6875 C-43.56830227 12.39607478 -40.10734914 6.55442041 -34 1 C-23.97718771 -6.37849586 -10.68021375 -5.63078143 0 0 Z " fill="#070708" transform="translate(382,493)"/>
<path d="M0 0 C5.28 0 10.56 0 16 0 C17.02738281 2.3203125 18.05476562 4.640625 19.11328125 7.03125 C20.14565175 9.36044459 21.1785696 11.68939552 22.2116394 14.01828003 C22.94388135 15.66900626 23.67591762 17.31982374 24.40774536 18.97073364 C29.43795066 30.31374805 34.51875862 41.62801393 39.81176758 52.8515625 C40.22322021 53.73457031 40.63467285 54.61757813 41.05859375 55.52734375 C41.41236084 56.27749756 41.76612793 57.02765137 42.13061523 57.80053711 C43 60 43 60 44 65 C39.05 65 34.1 65 29 65 C27.35 60.71 25.7 56.42 24 52 C13.11 51.67 2.22 51.34 -9 51 C-9.99 54.3 -10.98 57.6 -12 61 C-12.66 62.32 -13.32 63.64 -14 65 C-18.62 65 -23.24 65 -28 65 C-27.12090858 61.48363433 -26.04199762 58.67028712 -24.55078125 55.390625 C-24.03862061 54.25778076 -23.52645996 53.12493652 -22.9987793 51.95776367 C-22.72415863 51.35402924 -22.44953796 50.7502948 -22.16659546 50.12826538 C-20.69985858 46.90272299 -19.2444214 43.67209484 -17.7890625 40.44140625 C-17.48375107 39.76406937 -17.17843964 39.08673248 -16.86387634 38.38887024 C-13.24594776 30.34771876 -9.71454083 22.26883073 -6.1875 14.1875 C-5.87559723 13.47315796 -5.56369446 12.75881592 -5.24234009 12.02282715 C-3.49307334 8.0160072 -1.74620571 4.00815733 0 0 Z " fill="#F8FCF9" transform="translate(547,477)"/>
<path d="M0 0 C6.70773978 3.74331405 10.69249088 7.98339284 13.25390625 15.2578125 C13.25390625 19.5478125 13.25390625 23.8378125 13.25390625 28.2578125 C0.38390625 28.2578125 -12.48609375 28.2578125 -25.74609375 28.2578125 C-22.87080574 35.69390091 -22.87080574 35.69390091 -16.74609375 39.2578125 C-10.16457033 40.23397117 -5.0501326 39.58895559 0.59765625 36.03515625 C2.25390625 35.2578125 2.25390625 35.2578125 5.25390625 36.2578125 C6.640625 37.88671875 6.640625 37.88671875 7.94140625 39.8203125 C8.37839844 40.46097656 8.81539062 41.10164062 9.265625 41.76171875 C9.59175781 42.25542969 9.91789063 42.74914062 10.25390625 43.2578125 C1.61369132 49.48817157 -5.94077909 52.60670198 -16.74609375 51.2578125 C-26.52663791 48.63257281 -32.2334113 44.07076218 -37.3984375 35.5234375 C-39.05207305 31.51636702 -39.28425948 28.23752623 -39.24609375 23.9453125 C-39.23964844 23.1927417 -39.23320313 22.4401709 -39.2265625 21.66479492 C-39.02558742 15.5489382 -37.95094988 10.90848471 -33.74609375 6.2578125 C-31.24072785 3.93764819 -28.64077189 2.06048631 -25.74609375 0.2578125 C-24.38484375 -0.6703125 -24.38484375 -0.6703125 -22.99609375 -1.6171875 C-15.25086691 -4.29822756 -7.36951919 -3.38311796 0 0 Z " fill="#080909" transform="translate(820.74609375,491.7421875)"/>
<path d="M0 0 C3.92549305 3.43684246 6.39894738 7.02800387 8 12 C8.16585708 14.89572199 8.23341501 17.68990202 8.1953125 20.58203125 C8.1924826 21.39621017 8.18965271 22.2103891 8.18673706 23.04924011 C8.17558584 25.637146 8.15049083 28.22469958 8.125 30.8125 C8.11496365 32.57226061 8.10583894 34.33202667 8.09765625 36.09179688 C8.0756631 40.39466598 8.04116836 44.69727336 8 49 C4.04 49 0.08 49 -4 49 C-4.33 47.35 -4.66 45.7 -5 44 C-5.54269531 44.34933594 -6.08539063 44.69867187 -6.64453125 45.05859375 C-7.35996094 45.51363281 -8.07539063 45.96867188 -8.8125 46.4375 C-9.87404297 47.11619141 -9.87404297 47.11619141 -10.95703125 47.80859375 C-15.74846314 50.60283223 -20.60904869 50.57503481 -26 50 C-31.33006128 48.32924825 -34.95235691 45.75432322 -38 41 C-39.35698258 36.92905226 -39.52387231 33.25646256 -39 29 C-36.77385782 24.54771564 -34.48981614 22.13266267 -30 20 C-26.94427963 19.05893842 -24.20588826 18.88289093 -21.015625 18.90234375 C-20.08105469 18.90556641 -19.14648438 18.90878906 -18.18359375 18.91210938 C-16.73146484 18.92467773 -16.73146484 18.92467773 -15.25 18.9375 C-14.26644531 18.94201172 -13.28289062 18.94652344 -12.26953125 18.95117188 C-9.84629209 18.96293517 -7.42317727 18.97937316 -5 19 C-6.28211919 13.25091872 -6.28211919 13.25091872 -10 9 C-15.72334029 7.0922199 -21.94446322 7.0656651 -27.4375 9.5625 C-28.283125 10.036875 -29.12875 10.51125 -30 11 C-32.1875 11.0625 -32.1875 11.0625 -34 10 C-35.8125 7.125 -35.8125 7.125 -37 4 C-36 1 -36 1 -34.109375 -0.1328125 C-33.33078125 -0.46023438 -32.5521875 -0.78765625 -31.75 -1.125 C-30.98171875 -1.45757812 -30.2134375 -1.79015625 -29.421875 -2.1328125 C-19.81104932 -5.57410815 -8.82102436 -5.36795433 0 0 Z " fill="#090909" transform="translate(213,493)"/>
<path d="M0 0 C4.29 0 8.58 0 13 0 C13.0093457 0.99854004 13.01869141 1.99708008 13.02832031 3.02587891 C13.06835745 6.74995642 13.13415266 10.47321967 13.20751953 14.19677734 C13.23565005 15.80474341 13.25690389 17.41284572 13.27099609 19.02099609 C13.29253691 21.34022367 13.33923872 23.65782695 13.390625 25.9765625 C13.39185364 26.68930328 13.39308228 27.40204407 13.39434814 28.13638306 C13.54061437 33.18226887 14.82765415 36.10693636 18 40 C21.11888678 41.55944339 23.5454145 41.28316275 27 41 C31.82382551 39.18490001 34.80089321 36.67254639 37 32 C37.50194005 28.424376 37.50194005 28.424376 37.51171875 24.51171875 C37.52966995 23.80852005 37.54762115 23.10532135 37.56611633 22.3808136 C37.6200048 20.14976883 37.65404412 17.9189353 37.6875 15.6875 C37.72069224 14.16859053 37.75518367 12.64970886 37.79101562 11.13085938 C37.87571695 7.42077584 37.94263074 3.7106183 38 0 C41.96 0 45.92 0 50 0 C50 17.16 50 34.32 50 52 C46.37 52 42.74 52 39 52 C38.505 49.03 38.505 49.03 38 46 C37.278125 46.61875 36.55625 47.2375 35.8125 47.875 C28.89483456 53.10168056 21.3044793 52.71822524 13 52 C8.77482245 50.78689845 6.48389893 48.58852573 3.6875 45.1875 C0.44228599 39.05765132 -0.29132499 33.44496067 -0.1953125 26.66015625 C-0.1924826 25.89319931 -0.18965271 25.12624237 -0.18673706 24.33604431 C-0.17563475 21.91136379 -0.15054967 19.48706691 -0.125 17.0625 C-0.1149573 15.4082085 -0.10583372 13.75391115 -0.09765625 12.09960938 C-0.07572817 8.06626077 -0.04126843 4.0331952 0 0 Z " fill="#050505" transform="translate(236,490)"/>
<path d="M0 0 C14.19 0 28.38 0 43 0 C43 10.29206751 43 10.29206751 38.1875 15.1875 C37.17708779 16.29320285 36.16936134 17.40136482 35.1640625 18.51171875 C34.64231445 19.07810059 34.12056641 19.64448242 33.58300781 20.22802734 C30.92702362 23.20105839 28.50050283 26.347763 26.0625 29.5 C23.06394147 33.35220611 20.04983875 37.18770157 17 41 C30.86 41.495 30.86 41.495 45 42 C45 45.3 45 48.6 45 52 C30.15 52 15.3 52 0 52 C0 42 0 42 1.80078125 39.109375 C3.04408203 37.94148437 3.04408203 37.94148437 4.3125 36.75 C5.67375 35.39068359 5.67375 35.39068359 7.0625 34.00390625 C7.54332031 33.5258252 8.02414062 33.04774414 8.51953125 32.55517578 C11.16688144 29.77423569 13.4749835 26.72912649 15.8125 23.6875 C16.6935541 22.54522081 17.57504962 21.40328192 18.45703125 20.26171875 C18.82803955 19.77662842 19.19904785 19.29153809 19.58129883 18.79174805 C21.67019688 16.15357514 23.84575796 13.58509045 26 11 C13.13 10.505 13.13 10.505 0 10 C0 6.7 0 3.4 0 0 Z " fill="#040505" transform="translate(730,490)"/>
<path d="M0 0 C4.29 0 8.58 0 13 0 C13 3.96 13 7.92 13 12 C17.62 12 22.24 12 27 12 C27 15.63 27 19.26 27 23 C22.38 23 17.76 23 13 23 C13.09687548 26.95149966 13.19956184 30.90216192 13.31738281 34.85302734 C13.37454036 36.85886971 13.42168596 38.86498918 13.46875 40.87109375 C13.50742187 42.12792969 13.54609375 43.38476562 13.5859375 44.6796875 C13.63306885 46.42354736 13.63306885 46.42354736 13.68115234 48.20263672 C13.72157869 51.13656482 13.72157869 51.13656482 16 53 C18.44012949 53.24287489 18.44012949 53.24287489 21.125 53.125 C22.03507812 53.10695313 22.94515625 53.08890625 23.8828125 53.0703125 C24.58148438 53.04710937 25.28015625 53.02390625 26 53 C29 58.28 29 58.28 29 61.25 C28 63 28 63 26.0625 64.25 C18.90240429 66.00349283 12.40887099 65.71714517 6 62 C1.01302236 56.87823918 -0.25732682 52.20659375 -0.1953125 45.16796875 C-0.18886719 43.87568359 -0.18242187 42.58339844 -0.17578125 41.25195312 C-0.15907327 39.8971327 -0.14214342 38.54231499 -0.125 37.1875 C-0.11496003 35.81315749 -0.10583596 34.43880797 -0.09765625 33.06445312 C-0.07411242 29.70945683 -0.04122567 26.35481801 0 23 C-2.97 23 -5.94 23 -9 23 C-9 19.37 -9 15.74 -9 12 C-6.03 12 -3.06 12 0 12 C0 8.04 0 4.08 0 0 Z " fill="#0E0E0F" transform="translate(304,478)"/>
<path d="M0 0 C3.96 0 7.92 0 12 0 C12 4.29 12 8.58 12 13 C16.62 13 21.24 13 26 13 C26 15.97 26 18.94 26 22 C21.38 22 16.76 22 12 22 C12.08694174 26.23016533 12.19383799 30.45820669 12.3125 34.6875 C12.33505859 35.88568359 12.35761719 37.08386719 12.38085938 38.31835938 C12.4340332 40.05375977 12.4340332 40.05375977 12.48828125 41.82421875 C12.51446533 42.88729248 12.54064941 43.95036621 12.56762695 45.0456543 C13.05625999 48.3844168 13.95959532 50.3265342 16 53 C18.73377614 53.60393692 18.73377614 53.60393692 21.6875 53.3125 C22.68136719 53.26738281 23.67523437 53.22226562 24.69921875 53.17578125 C25.83810547 53.08876953 25.83810547 53.08876953 27 53 C27.99 55.97 28.98 58.94 30 62 C24.49094499 65.57344108 19.35421544 65.78525106 13 65 C7.4388637 63.506384 3.93979817 60.59430552 1.0078125 55.69726562 C-1.19873078 49.79176898 -0.49934219 43.21444166 -0.3125 37 C-0.28737943 35.54300712 -0.2645729 34.08597241 -0.24414062 32.62890625 C-0.18945637 29.08505803 -0.10339531 25.54280068 0 22 C-2.64 22 -5.28 22 -8 22 C-8 19.03 -8 16.06 -8 13 C-5.36 13 -2.72 13 0 13 C0 8.71 0 4.42 0 0 Z " fill="#030303" transform="translate(660,478)"/>
<path d="M0 0 C4.62 0 9.24 0 14 0 C14 21.45 14 42.9 14 65 C9.38 65 4.76 65 0 65 C0 43.55 0 22.1 0 0 Z " fill="#F4FBF8" transform="translate(600,477)"/>
<path d="M0 0 C3.70174286 1.2613346 6.32571629 3.08095289 8.66796875 6.2734375 C11.43002672 11.92715146 10.79354796 18.66112179 8.8125 24.5 C6.0798558 28.26916441 3.42496874 30.52501042 -1 32 C-7.12093081 32.50171564 -10.1167095 32.08833623 -15 28 C-19.24076579 23.17430099 -19.50731085 18.3245712 -19.4921875 12.09375 C-18.69314308 7.07118509 -15.83056229 4.16324714 -12 1 C-8.28011318 -0.85994341 -4.05935619 -0.4375354 0 0 Z " fill="#FAFAFA" transform="translate(370,500)"/>
<path d="M0 0 C3.96 0 7.92 0 12 0 C12 17.16 12 34.32 12 52 C8.04 52 4.08 52 0 52 C0 34.84 0 17.68 0 0 Z " fill="#010102" transform="translate(705,490)"/>
<path d="M0 0 C2.73124689 2.38278592 3.90982257 4.69324478 5.26171875 8.03515625 C5.85629883 9.49598633 5.85629883 9.49598633 6.46289062 10.98632812 C7.06907227 12.5090332 7.06907227 12.5090332 7.6875 14.0625 C8.10322266 15.08150391 8.51894531 16.10050781 8.94726562 17.15039062 C12 24.71455511 12 24.71455511 12 27 C4.74 27 -2.52 27 -10 27 C-6.625 16.875 -6.625 16.875 -5.17578125 13.18359375 C-4.86962891 12.40048828 -4.56347656 11.61738281 -4.24804688 10.81054688 C-3.93931641 10.02744141 -3.63058594 9.24433594 -3.3125 8.4375 C-2.83200195 7.21063477 -2.83200195 7.21063477 -2.34179688 5.95898438 C-1.56321746 3.97186378 -0.78190155 1.98581573 0 0 Z " fill="#23B9B0" transform="translate(554,490)"/>
<path d="M0 0 C4.64903914 1.69868738 7.38566861 3.77684929 10 8 C10 9.65 10 11.3 10 13 C1.09 13 -7.82 13 -17 13 C-16 6 -16 6 -14.66015625 4.2578125 C-9.52781788 0.61874618 -6.33694818 -0.65024655 0 0 Z " fill="#F4F5F6" transform="translate(812,499)"/>
<path d="M0 0 C0.84046875 0.01804687 1.6809375 0.03609375 2.546875 0.0546875 C4.61507395 0.10169202 6.68268441 0.17343276 8.75 0.25 C8.96875 6.8984375 8.96875 6.8984375 7 10.0625 C3.67604144 13.29412638 0.95182748 14.54459571 -3.6875 14.625 C-6.98515761 14.53793313 -8.30170074 14.22256696 -11.3125 12.625 C-13.25 10.25 -13.25 10.25 -13.8125 7.25 C-12.33206367 -0.64566042 -6.70095383 -0.27222625 0 0 Z " fill="#F6F6F6" transform="translate(199.25,519.75)"/>
<path d="M0 0 C3.71317907 1.14770989 5.2692056 1.85342428 7.4375 5.0625 C8.03774477 8.66396865 7.89312482 10.34109404 5.9375 13.4375 C2.43109333 15.71666433 -0.49150647 15.88003559 -4.5625 15.0625 C-7.0625 13.4375 -7.0625 13.4375 -8.5625 11.0625 C-9.125 8.125 -9.125 8.125 -8.5625 5.0625 C-5.88937913 1.25532785 -4.71546409 0.08272744 0 0 Z " fill="#0B0B0B" transform="translate(711.5625,465.9375)"/>
<path d="M0 0 C0.66 0 1.32 0 2 0 C1.8864371 1.64666203 1.75882619 3.29236082 1.625 4.9375 C1.52058594 6.31228516 1.52058594 6.31228516 1.4140625 7.71484375 C1.27742188 8.46894531 1.14078125 9.22304688 1 10 C0.01 10.495 0.01 10.495 -1 11 C-1.0270043 9.54176788 -1.04639787 8.08339325 -1.0625 6.625 C-1.07410156 5.81289063 -1.08570313 5.00078125 -1.09765625 4.1640625 C-1 2 -1 2 0 0 Z " fill="#25B0A5" transform="translate(502,497)"/>
<path d="M0 0 C0.66 0.33 1.32 0.66 2 1 C2.25 3.3125 2.25 3.3125 2 6 C0 7.8125 0 7.8125 -2 9 C-1.125 2.25 -1.125 2.25 0 0 Z " fill="#2BB6A7" transform="translate(554,490)"/>
<path d="M0 0 C0.33 0 0.66 0 1 0 C1.144375 0.9075 1.28875 1.815 1.4375 2.75 C1.90623358 5.86064554 1.90623358 5.86064554 2.6875 8.25 C2.8421875 9.11625 2.8421875 9.11625 3 10 C2.34 10.66 1.68 11.32 1 12 C0.03929566 9.11788698 -0.10581883 7.30149956 -0.0625 4.3125 C-0.05347656 3.50425781 -0.04445313 2.69601562 -0.03515625 1.86328125 C-0.02355469 1.24839844 -0.01195312 0.63351562 0 0 Z " fill="#5DC4B8" transform="translate(500,514)"/>
</svg>
