<svg xmlns="http://www.w3.org/2000/svg" viewBox="0 0 24 24" fill="#1e40af">
  <path d="M12.75 2.75a.75.75 0 00-1.5 0V5.5h-2a.75.75 0 000 1.5h2V9.5h-2a.75.75 0 000 1.5h2V13.5h-2a.75.75 0 000 1.5h2V17.5h-2a.75.75 0 000 1.5h2v2.75a.75.75 0 001.5 0V18.5h2.25a.75.75 0 000-1.5H12.75V14.5h2.25a.75.75 0 000-1.5H12.75V10.5h2.25a.75.75 0 000-1.5H12.75V6.5h2.25a.75.75 0 000-1.5H12.75V2.75z" />
  <path fillRule="evenodd" d="M12 21a9 9 0 100-18 9 9 0 000 18zM1.5 12a10.5 10.5 0 1121 0 10.5 10.5 0 01-21 0z" clipRule="evenodd" />
</svg>